<svg width="679.707470703125px" height="122px" xmlns="http://www.w3.org/2000/svg" viewBox="-89.85373535156248 14 679.707470703125 122" style="background: rgb(192, 242, 248);" preserveAspectRatio="xMidYMid"><defs><filter id="editing-cake" x="-100%" y="-100%" width="300%" height="300%"><feFlood flood-color="#2d1500" result="flood-shadow"></feFlood><feFlood flood-color="#891919"></feFlood><feComposite operator="in" in2="SourceAlpha"></feComposite><feConvolveMatrix order="7,10" divisor="1" result="conv" kernelMatrix="0 0 0 1 0 0 0 0 0 1 0 1 0 0 0 0 1 0 1 0 0 0 1 0 0 0 1 0 0 1 0 0 0 1 0 0 1 0 0 0 1 0 1 0 0 0 0 0 1 1 0 0 0 0 0 1 0 1 1 0 1 1 0 0 0 0 1 0 0 0 "></feConvolveMatrix><feGaussianBlur stdDeviation="0.5"></feGaussianBlur><feOffset dy="4" result="offset"></feOffset><feComposite operator="in" in="flood-shadow" in2="offset"></feComposite><feGaussianBlur stdDeviation="4"></feGaussianBlur><feComponentTransfer><feFuncA type="linear" slope="0.7" intercept="-0.2"></feFuncA></feComponentTransfer><feOffset dy="4" result="shadow"></feOffset><feGaussianBlur in="SourceGraphic" stdDeviation="0.5"></feGaussianBlur><feOffset dy="0" result="x0"></feOffset><feGaussianBlur in="SourceGraphic" stdDeviation="1"></feGaussianBlur><feComponentTransfer><feFuncA type="linear" slope="0.8" intercept="-.01"></feFuncA></feComponentTransfer><feOffset dy="1" result="x1"></feOffset><feGaussianBlur in="SourceGraphic" stdDeviation="2"></feGaussianBlur><feComponentTransfer><feFuncA type="linear" slope="0.7" intercept="-.01"></feFuncA></feComponentTransfer><feOffset dy="2" result="x2"></feOffset><feGaussianBlur in="SourceGraphic" stdDeviation="3"></feGaussianBlur><feComponentTransfer><feFuncA type="linear" slope="0.6" intercept="-.01"></feFuncA></feComponentTransfer><feOffset dy="3" result="x3"></feOffset><feMerge><feMergeNode in="shadow"></feMergeNode><feMergeNode in="offset"></feMergeNode><feMergeNode in="x3"></feMergeNode><feMergeNode in="x2"></feMergeNode><feMergeNode in="x1"></feMergeNode><feMergeNode in="x0"></feMergeNode></feMerge></filter></defs><g filter="url(#editing-cake)"><g transform="translate(8.293497174978256, 104.47000122070312)"><path d="M24.96-4.80L24.96-4.80L24.96-4.80Q24.96-9.28 26.75-18.24L26.75-18.24L17.28-18.24L13.76 0L0.38 0L8.51-42.24L22.02-42.24L18.30-23.36L27.78-23.36L31.30-42.24L44.80-42.24L44.80-42.24Q43.90-37.50 42.75-32.19L42.75-32.19L40.58-21.76L40.58-21.76Q38.14-9.60 38.14-4.29L38.14-4.29L38.14-4.29Q38.14-2.11 38.85-0.90L38.85-0.90L38.85-0.90Q35.65 1.28 31.90 1.28L31.90 1.28L31.90 1.28Q28.16 1.28 26.56-0.51L26.56-0.51L26.56-0.51Q24.96-2.30 24.96-4.80ZM49.12-1.92L49.12-1.92L49.12-1.92Q47.62-3.58 46.94-6.21L46.94-6.21L46.94-6.21Q46.27-8.83 46.27-13.12L46.27-13.12L46.27-13.12Q46.27-17.41 47.74-21.31L47.74-21.31L47.74-21.31Q49.22-25.22 51.90-28.03L51.90-28.03L51.90-28.03Q57.41-33.92 66.50-33.92L66.50-33.92L66.50-33.92Q69.76-33.92 72.13-32.83L72.13-32.83L83.07-33.92L78.34-8.96L78.34-8.96Q78.14-8.19 78.14-6.78L78.14-6.78L78.14-6.78Q78.14-5.38 79.01-4.48L79.01-4.48L79.01-4.48Q79.87-3.58 81.15-3.46L81.15-3.46L81.15-3.46Q80.51-1.28 78.18 0L78.18 0L78.18 0Q75.84 1.28 73.22 1.28L73.22 1.28L73.22 1.28Q70.59 1.28 68.83 0.29L68.83 0.29L68.83 0.29Q67.07-0.70 66.56-2.37L66.56-2.37L66.56-2.37Q65.54-0.77 63.36 0.26L63.36 0.26L63.36 0.26Q61.18 1.28 58.27 1.28L58.27 1.28L58.27 1.28Q55.36 1.28 52.99 0.51L52.99 0.51L52.99 0.51Q50.62-0.26 49.12-1.92ZM62.62-27.90L62.62-27.90L62.62-27.90Q61.89-26.75 61.25-24.80L61.25-24.80L61.25-24.80Q60.61-22.85 59.55-17.63L59.55-17.63L59.55-17.63Q58.50-12.42 58.50-8.70L58.50-8.70L58.50-8.70Q58.50-4.99 59.07-3.90L59.07-3.90L59.07-3.90Q59.65-2.82 60.67-2.82L60.67-2.82L60.67-2.82Q62.72-2.82 64.22-4.77L64.22-4.77L64.22-4.77Q65.73-6.72 66.30-10.18L66.30-10.18L69.70-28.93L69.70-28.93Q68.35-30.08 66.78-30.08L66.78-30.08L66.78-30.08Q65.22-30.08 64.29-29.57L64.29-29.57L64.29-29.57Q63.36-29.06 62.62-27.90ZM116.35-4.38L116.35-4.38L116.35-4.38Q113.66-1.66 109.98-0.19L109.98-0.19L109.98-0.19Q106.30 1.28 102.66 1.28L102.66 1.28L102.66 1.28Q99.01 1.28 97.73 0.64L97.73 0.64L95.74 11.52L82.75 12.80L91.58-32.64L102.02-33.73L101.18-29.31L101.18-29.31Q103.87-33.86 109.44-33.86L109.44-33.86L109.44-33.86Q115.71-33.86 119.04-29.82L119.04-29.82L119.04-29.82Q121.98-26.18 121.98-20.61L121.98-20.61L121.98-20.61Q121.98-15.04 120.51-11.07L120.51-11.07L120.51-11.07Q119.04-7.10 116.35-4.38ZM101.89-22.34L98.50-3.58L98.50-3.58Q99.84-2.43 101.50-2.43L101.50-2.43L101.50-2.43Q103.17-2.43 104.13-3.07L104.13-3.07L104.13-3.07Q105.09-3.71 105.79-4.99L105.79-4.99L105.79-4.99Q107.71-8.45 109.25-18.94L109.25-18.94L109.25-18.94Q109.70-22.02 109.70-25.02L109.70-25.02L109.70-25.02Q109.70-28.03 109.02-28.99L109.02-28.99L109.02-28.99Q108.35-29.95 107.07-29.95L107.07-29.95L107.07-29.95Q103.17-29.95 101.89-22.34L101.89-22.34ZM155.65-4.38L155.65-4.38L155.65-4.38Q152.96-1.66 149.28-0.19L149.28-0.19L149.28-0.19Q145.60 1.28 141.95 1.28L141.95 1.28L141.95 1.28Q138.30 1.28 137.02 0.64L137.02 0.64L135.04 11.52L122.05 12.80L130.88-32.64L141.31-33.73L140.48-29.31L140.48-29.31Q143.17-33.86 148.74-33.86L148.74-33.86L148.74-33.86Q155.01-33.86 158.34-29.82L158.34-29.82L158.34-29.82Q161.28-26.18 161.28-20.61L161.28-20.61L161.28-20.61Q161.28-15.04 159.81-11.07L159.81-11.07L159.81-11.07Q158.34-7.10 155.65-4.38ZM141.18-22.34L137.79-3.58L137.79-3.58Q139.14-2.43 140.80-2.43L140.80-2.43L140.80-2.43Q142.46-2.43 143.42-3.07L143.42-3.07L143.42-3.07Q144.38-3.71 145.09-4.99L145.09-4.99L145.09-4.99Q147.01-8.45 148.54-18.94L148.54-18.94L148.54-18.94Q148.99-22.02 148.99-25.02L148.99-25.02L148.99-25.02Q148.99-28.03 148.32-28.99L148.32-28.99L148.32-28.99Q147.65-29.95 146.37-29.95L146.37-29.95L146.37-29.95Q142.46-29.95 141.18-22.34L141.18-22.34ZM185.47-7.23L185.47-7.23L185.47-7.23Q182.14-3.78 176.06-3.78L176.06-3.78L176.06-3.78Q168.45-3.78 166.85-9.34L166.85-9.34L166.85-9.34Q166.34-11.01 166.34-12.86L166.34-12.86L166.34-12.86Q166.34-14.72 166.72-16.64L166.72-16.64L169.73-32.64L182.72-33.92L179.20-15.30L179.20-15.30Q179.07-14.46 178.88-13.57L178.88-13.57L178.88-13.57Q178.69-12.67 178.69-11.74L178.69-11.74L178.69-11.74Q178.69-10.82 179.01-10.21L179.01-10.21L179.01-10.21Q179.33-9.60 179.78-9.22L179.78-9.22L179.78-9.22Q180.54-8.70 181.92-8.70L181.92-8.70L181.92-8.70Q183.30-8.70 184.48-10.37L184.48-10.37L184.48-10.37Q185.66-12.03 186.24-14.91L186.24-14.91L189.76-32.64L202.37-33.92L197.57-8.77L197.57-8.77Q195.20 3.52 190.34 8.38L190.34 8.38L190.34 8.38Q187.84 10.88 184.61 11.87L184.61 11.87L184.61 11.87Q181.38 12.86 177.22 12.86L177.22 12.86L177.22 12.86Q170.50 12.86 166.66 10.75L166.66 10.75L166.66 10.75Q162.82 8.64 162.82 5.12L162.82 5.12L162.82 5.12Q162.82 2.50 164.80 0.99L164.80 0.99L164.80 0.99Q166.78-0.51 169.86-0.51L169.86-0.51L169.86-0.51Q172.54-0.51 174.59 0.64L174.59 0.64L174.59 0.64Q175.81 1.34 176.38 2.24L176.38 2.24L176.38 2.24Q174.91 3.52 174.91 5.63L174.91 5.63L174.91 5.63Q174.91 8.45 177.47 8.45L177.47 8.45L177.47 8.45Q181.70 8.45 184.13-1.28L184.13-1.28L184.13-1.28Q184.83-4.16 185.47-7.23ZM219.46-39.68L219.46-39.68L219.46-39.68Q220.35-41.47 222.30-42.46L222.30-42.46L222.30-42.46Q224.26-43.46 226.94-43.46L226.94-43.46L226.94-43.46Q231.17-43.46 233.70-40.42L233.70-40.42L233.70-40.42Q236.22-37.38 236.22-30.72L236.22-30.72L236.22-7.87L250.88-42.18L258.43-42.18L260.16-9.79L259.97-7.94L275.20-42.18L283.97-42.18L263.49 0L249.86 0L248.58-19.46L240.13 0L224.70 0L222.78-30.72L222.78-30.72Q222.59-34.18 221.66-36.45L221.66-36.45L221.66-36.45Q220.74-38.72 219.46-39.68ZM306.05-10.82L306.05-10.82L306.05-10.82Q307.65-9.73 307.65-7.33L307.65-7.33L307.65-7.33Q307.65-4.93 306.43-3.39L306.43-3.39L306.43-3.39Q305.22-1.86 303.23-0.83L303.23-0.83L303.23-0.83Q299.14 1.28 294.72 1.28L294.72 1.28L294.72 1.28Q290.30 1.28 287.71 0.32L287.71 0.32L287.71 0.32Q285.12-0.64 283.39-2.43L283.39-2.43L283.39-2.43Q280.00-5.82 280.00-12.03L280.00-12.03L280.00-12.03Q280.00-21.70 285.25-27.58L285.25-27.58L285.25-27.58Q290.88-33.92 300.67-33.92L300.67-33.92L300.67-33.92Q306.75-33.92 309.76-31.36L309.76-31.36L309.76-31.36Q312.00-29.44 312.00-26.30L312.00-26.30L312.00-26.30Q312.00-15.04 292.54-15.04L292.54-15.04L292.54-15.04Q292.29-13.38 292.29-11.97L292.29-11.97L292.29-11.97Q292.29-9.02 293.60-7.90L293.60-7.90L293.60-7.90Q294.91-6.78 297.34-6.78L297.34-6.78L297.34-6.78Q299.78-6.78 302.37-7.90L302.37-7.90L302.37-7.90Q304.96-9.02 306.05-10.82ZM292.99-17.79L292.99-17.79L292.99-17.79Q297.54-17.79 300.16-20.61L300.16-20.61L300.16-20.61Q302.78-23.30 302.78-27.58L302.78-27.58L302.78-27.58Q302.78-29.06 302.24-29.86L302.24-29.86L302.24-29.86Q301.70-30.66 300.61-30.66L300.61-30.66L300.61-30.66Q299.52-30.66 298.59-30.24L298.59-30.24L298.59-30.24Q297.66-29.82 296.70-28.42L296.70-28.42L296.70-28.42Q294.34-25.22 292.99-17.79ZM316.96-1.92L316.96-1.92L316.96-1.92Q315.46-3.58 314.78-6.21L314.78-6.21L314.78-6.21Q314.11-8.83 314.11-13.12L314.11-13.12L314.11-13.12Q314.11-17.41 315.58-21.31L315.58-21.31L315.58-21.31Q317.06-25.22 319.74-28.03L319.74-28.03L319.74-28.03Q325.25-33.92 334.34-33.92L334.34-33.92L334.34-33.92Q337.60-33.92 339.97-32.83L339.97-32.83L350.91-33.92L346.18-8.96L346.18-8.96Q345.98-8.19 345.98-6.78L345.98-6.78L345.98-6.78Q345.98-5.38 346.85-4.48L346.85-4.48L346.85-4.48Q347.71-3.58 348.99-3.46L348.99-3.46L348.99-3.46Q348.35-1.28 346.02 0L346.02 0L346.02 0Q343.68 1.28 341.06 1.28L341.06 1.28L341.06 1.28Q338.43 1.28 336.67 0.29L336.67 0.29L336.67 0.29Q334.91-0.70 334.40-2.37L334.40-2.37L334.40-2.37Q333.38-0.77 331.20 0.26L331.20 0.26L331.20 0.26Q329.02 1.28 326.11 1.28L326.11 1.28L326.11 1.28Q323.20 1.28 320.83 0.51L320.83 0.51L320.83 0.51Q318.46-0.26 316.96-1.92ZM330.46-27.90L330.46-27.90L330.46-27.90Q329.73-26.75 329.09-24.80L329.09-24.80L329.09-24.80Q328.45-22.85 327.39-17.63L327.39-17.63L327.39-17.63Q326.34-12.42 326.34-8.70L326.34-8.70L326.34-8.70Q326.34-4.99 326.91-3.90L326.91-3.90L326.91-3.90Q327.49-2.82 328.51-2.82L328.51-2.82L328.51-2.82Q330.56-2.82 332.06-4.77L332.06-4.77L332.06-4.77Q333.57-6.72 334.14-10.18L334.14-10.18L337.54-28.93L337.54-28.93Q336.19-30.08 334.62-30.08L334.62-30.08L334.62-30.08Q333.06-30.08 332.13-29.57L332.13-29.57L332.13-29.57Q331.20-29.06 330.46-27.90ZM355.39-6.40L355.39-6.40L355.39-6.40Q355.39-8.13 356.29-12.48L356.29-12.48L359.68-29.76L355.90-29.76L356.16-31.68L356.16-31.68Q363.84-33.98 371.26-39.62L371.26-39.62L374.34-39.62L372.80-32.64L377.79-32.64L377.22-29.76L372.29-29.76L369.02-12.48L369.02-12.48Q368.19-8.51 368.19-7.17L368.19-7.17L368.19-7.17Q368.19-4.10 370.88-3.46L370.88-3.46L370.88-3.46Q370.24-1.28 367.94 0L367.94 0L367.94 0Q365.63 1.28 362.37 1.28L362.37 1.28L362.37 1.28Q359.10 1.28 357.25-0.77L357.25-0.77L357.25-0.77Q355.39-2.82 355.39-6.40ZM409.66-7.10L409.66-7.10L409.66-7.10Q409.66-4.29 412.54-3.46L412.54-3.46L412.54-3.46Q411.84-1.09 409.09 0.19L409.09 0.19L409.09 0.19Q406.78 1.28 404.26 1.28L404.26 1.28L404.26 1.28Q401.73 1.28 400.42 0.61L400.42 0.61L400.42 0.61Q399.10-0.06 398.40-1.15L398.40-1.15L398.40-1.15Q397.25-2.82 397.25-5.95L397.25-5.95L397.25-5.95Q397.25-7.81 398.27-12.93L398.27-12.93L399.17-17.79L399.17-17.79Q400.26-23.36 400.26-25.41L400.26-25.41L400.26-25.41Q400.26-28.99 398.27-28.99L398.27-28.99L398.27-28.99Q395.78-28.99 394.18-25.34L394.18-25.34L394.18-25.34Q393.54-23.94 393.09-21.82L393.09-21.82L388.74 0L375.87 1.28L384.90-44.80L397.76-46.08L397.25-43.52L397.25-43.52Q395.46-33.66 393.92-30.34L393.92-30.34L393.92-30.34Q397.50-33.92 404.10-33.92L404.10-33.92L404.10-33.92Q411.07-33.92 412.35-29.31L412.35-29.31L412.35-29.31Q412.80-27.84 412.80-26.56L412.80-26.56L412.80-26.56Q412.80-25.28 412.70-24.29L412.70-24.29L412.70-24.29Q412.61-23.30 412.29-21.50L412.29-21.50L411.46-16.90L409.98-9.66L409.98-9.66Q409.66-8.19 409.66-7.10ZM443.65-10.82L443.65-10.82L443.65-10.82Q445.25-9.73 445.25-7.33L445.25-7.33L445.25-7.33Q445.25-4.93 444.03-3.39L444.03-3.39L444.03-3.39Q442.82-1.86 440.83-0.83L440.83-0.83L440.83-0.83Q436.74 1.28 432.32 1.28L432.32 1.28L432.32 1.28Q427.90 1.28 425.31 0.32L425.31 0.32L425.31 0.32Q422.72-0.64 420.99-2.43L420.99-2.43L420.99-2.43Q417.60-5.82 417.60-12.03L417.60-12.03L417.60-12.03Q417.60-21.70 422.85-27.58L422.85-27.58L422.85-27.58Q428.48-33.92 438.27-33.92L438.27-33.92L438.27-33.92Q444.35-33.92 447.36-31.36L447.36-31.36L447.36-31.36Q449.60-29.44 449.60-26.30L449.60-26.30L449.60-26.30Q449.60-15.04 430.14-15.04L430.14-15.04L430.14-15.04Q429.89-13.38 429.89-11.97L429.89-11.97L429.89-11.97Q429.89-9.02 431.20-7.90L431.20-7.90L431.20-7.90Q432.51-6.78 434.94-6.78L434.94-6.78L434.94-6.78Q437.38-6.78 439.97-7.90L439.97-7.90L439.97-7.90Q442.56-9.02 443.65-10.82ZM430.59-17.79L430.59-17.79L430.59-17.79Q435.14-17.79 437.76-20.61L437.76-20.61L437.76-20.61Q440.38-23.30 440.38-27.58L440.38-27.58L440.38-27.58Q440.38-29.06 439.84-29.86L439.84-29.86L439.84-29.86Q439.30-30.66 438.21-30.66L438.21-30.66L438.21-30.66Q437.12-30.66 436.19-30.24L436.19-30.24L436.19-30.24Q435.26-29.82 434.30-28.42L434.30-28.42L434.30-28.42Q431.94-25.22 430.59-17.79ZM471.81-17.98L471.81-17.98L471.81-17.98Q474.11-22.08 474.11-26.24L474.11-26.24L474.11-26.24Q474.11-28.99 472.13-28.99L472.13-28.99L472.13-28.99Q470.59-28.99 468.99-26.37L468.99-26.37L468.99-26.37Q467.33-23.74 466.82-20.35L466.82-20.35L463.49 0L450.24 1.28L456.77-32.64L467.33-33.92L466.18-27.46L466.18-27.46Q469.31-33.92 476.35-33.92L476.35-33.92L476.35-33.92Q480.06-33.92 482.08-32L482.08-32L482.08-32Q484.10-30.08 484.10-26.14L484.10-26.14L484.10-26.14Q484.10-22.21 481.50-19.71L481.50-19.71L481.50-19.71Q478.91-17.22 474.50-17.22L474.50-17.22L474.50-17.22Q472.58-17.22 471.81-17.98Z" fill="#ffd800"></path></g></g><style>text {
  font-size: 64px;
  font-family: Arial Black;
  dominant-baseline: central;
  text-anchor: middle;
}</style></svg>